<svg width="32" height="32" viewBox="0 0 32 32" fill="none" xmlns="http://www.w3.org/2000/svg">
<path d="M10.6667 16H12.0001M21.3334 16H16.0001" stroke="#1C274C" stroke-width="1.5" stroke-linecap="round"/>
<path d="M21.3334 10.6667H20.0001M16.0001 10.6667H10.6667" stroke="#1C274C" stroke-width="1.5" stroke-linecap="round"/>
<path d="M10.6667 21.3333H17.3334" stroke="#1C274C" stroke-width="1.5" stroke-linecap="round"/>
<path d="M4 18.6667V13.3333C4 8.30502 4 5.79087 5.5621 4.22877C7.1242 2.66667 9.63835 2.66667 14.6667 2.66667H17.3333C22.3616 2.66667 24.8758 2.66667 26.4379 4.22877C27.3088 5.09968 27.6942 6.26652 27.8647 8M28 13.3333V18.6667C28 23.695 28 26.2091 26.4379 27.7712C24.8758 29.3333 22.3616 29.3333 17.3333 29.3333H14.6667C9.63835 29.3333 7.1242 29.3333 5.5621 27.7712C4.69119 26.9003 4.30583 25.7335 4.13532 24" stroke="#1C274C" stroke-width="1.5" stroke-linecap="round"/>
</svg>
