<svg width="32" height="32" viewBox="0 0 32 32" fill="none" xmlns="http://www.w3.org/2000/svg">
<circle cx="15.9999" cy="14.6667" r="2.66667" stroke="#1C274C" stroke-width="1.5"/>
<path d="M27.3334 10C27.3334 10.7364 26.7365 11.3333 26.0001 11.3333C25.2637 11.3333 24.6667 10.7364 24.6667 10C24.6667 9.26363 25.2637 8.66667 26.0001 8.66667C26.7365 8.66667 27.3334 9.26363 27.3334 10Z" stroke="#1C274C" stroke-width="1.5"/>
<path d="M27.3334 21.3333C27.3334 22.0697 26.7365 22.6667 26.0001 22.6667C25.2637 22.6667 24.6667 22.0697 24.6667 21.3333C24.6667 20.597 25.2637 20 26.0001 20C26.7365 20 27.3334 20.597 27.3334 21.3333Z" stroke="#1C274C" stroke-width="1.5"/>
<path d="M7.33341 10C7.33341 10.7364 6.73646 11.3333 6.00008 11.3333C5.2637 11.3333 4.66675 10.7364 4.66675 10C4.66675 9.26363 5.2637 8.66667 6.00008 8.66667C6.73646 8.66667 7.33341 9.26363 7.33341 10Z" stroke="#1C274C" stroke-width="1.5"/>
<path d="M7.33341 21.3333C7.33341 22.0697 6.73646 22.6667 6.00008 22.6667C5.2637 22.6667 4.66675 22.0697 4.66675 21.3333C4.66675 20.597 5.2637 20 6.00008 20C6.73646 20 7.33341 20.597 7.33341 21.3333Z" stroke="#1C274C" stroke-width="1.5"/>
<path d="M16.0001 3.33333C16.7365 3.33333 17.3334 3.93029 17.3334 4.66667C17.3334 5.40305 16.7365 6 16.0001 6C15.2637 6 14.6667 5.40305 14.6667 4.66667C14.6667 3.93029 15.2637 3.33333 16.0001 3.33333Z" stroke="#1C274C" stroke-width="1.5"/>
<path d="M16.0001 24.6667C16.7365 24.6667 17.3334 25.2636 17.3334 26C17.3334 26.7364 16.7365 27.3333 16.0001 27.3333C15.2637 27.3333 14.6667 26.7364 14.6667 26C14.6667 25.2636 15.2637 24.6667 16.0001 24.6667Z" stroke="#1C274C" stroke-width="1.5"/>
<path opacity="0.5" d="M18 17.3333L24.6667 29.3333" stroke="#1C274C" stroke-width="1.5" stroke-linecap="round"/>
<path opacity="0.5" d="M14 17.3333L7.33333 29.3333" stroke="#1C274C" stroke-width="1.5" stroke-linecap="round"/>
<path opacity="0.5" d="M14.085 5.04415C15.2787 4.39328 16.7212 4.39328 17.9149 5.04415L24.3072 8.52972C25.5925 9.23057 26.3923 10.5776 26.3923 12.0416V18.6251C26.3923 20.0891 25.5925 21.4361 24.3072 22.1369L17.9149 25.6225C16.7212 26.2734 15.2787 26.2734 14.085 25.6225L7.69274 22.1369C6.40743 21.4361 5.60767 20.0891 5.60767 18.6251V12.0416C5.60767 10.5776 6.40743 9.23057 7.69274 8.52972L14.085 5.04415Z" stroke="#1C274C" stroke-width="1.5"/>
</svg>
