<svg width="32" height="32" viewBox="0 0 32 32" fill="none" xmlns="http://www.w3.org/2000/svg">
<path d="M2.66675 16.2719C2.66675 13.2207 2.66675 11.695 3.35902 10.4303C4.05128 9.16561 5.31601 8.38069 7.84546 6.81084L10.5121 5.15583C13.1859 3.49639 14.5228 2.66667 16.0001 2.66667C17.4773 2.66667 18.8142 3.49639 21.488 5.15583L24.1547 6.81084C26.6842 8.38069 27.9489 9.16561 28.6411 10.4303C29.3334 11.695 29.3334 13.2207 29.3334 16.2719V18.2999C29.3334 23.5011 29.3334 26.1017 27.7713 27.7175C26.2092 29.3333 23.6951 29.3333 18.6667 29.3333H13.3334C8.3051 29.3333 5.79094 29.3333 4.22885 27.7175C2.66675 26.1017 2.66675 23.5011 2.66675 18.2999V16.2719Z" stroke="#1C274C" stroke-width="1.5"/>
<path d="M20 24H12" stroke="#1C274C" stroke-width="1.5" stroke-linecap="round"/>
</svg>
