<svg width="32" height="32" viewBox="0 0 32 32" fill="none" xmlns="http://www.w3.org/2000/svg">
<path d="M26.0826 9.33333C26.3875 7.59364 25.0488 6 23.2826 6H8.71749C6.9513 6 5.61262 7.59364 5.91745 9.33333" stroke="#1C274C" stroke-width="1.5"/>
<path d="M23.3332 6C23.3711 5.65457 23.39 5.4818 23.3903 5.33913C23.3933 3.9743 22.3652 2.82753 21.0082 2.6819C20.8663 2.66667 20.6926 2.66667 20.345 2.66667H11.6547C11.3071 2.66667 11.1334 2.66667 10.9915 2.6819C9.63446 2.82753 8.60642 3.9743 8.60938 5.33913C8.60969 5.48181 8.62861 5.65454 8.66644 6" stroke="#1C274C" stroke-width="1.5"/>
<path d="M20 24H12" stroke="#1C274C" stroke-width="1.5" stroke-linecap="round"/>
<path d="M3.1781 18.3906C2.58339 14.1726 2.28604 12.0635 3.54984 10.6984C4.81364 9.33333 7.06352 9.33333 11.5633 9.33333H20.4369C24.9366 9.33333 27.1865 9.33333 28.4503 10.6984C29.7141 12.0635 29.4168 14.1726 28.8221 18.3906L28.2581 22.3906C27.7917 25.6985 27.5586 27.3524 26.3623 28.3429C25.166 29.3333 23.4017 29.3333 19.8729 29.3333H12.1272C8.59849 29.3333 6.83412 29.3333 5.63787 28.3429C4.44161 27.3524 4.20843 25.6985 3.74206 22.3906L3.1781 18.3906Z" stroke="#1C274C" stroke-width="1.5"/>
</svg>
